<svg width="32" height="32" viewBox="0 0 32 32" fill="none" xmlns="http://www.w3.org/2000/svg">
  <rect width="32" height="32" rx="8" fill="#0a0a0a"/>
  <defs>
    <linearGradient id="vaultGradient" x1="0%" y1="0%" x2="100%" y2="100%">
      <stop offset="0%" style="stop-color:#8b5cf6;stop-opacity:1" />
      <stop offset="50%" style="stop-color:#3b82f6;stop-opacity:1" />
      <stop offset="100%" style="stop-color:#06b6d4;stop-opacity:1" />
    </linearGradient>
    <linearGradient id="lockGradient" x1="0%" y1="0%" x2="100%" y2="100%">
      <stop offset="0%" style="stop-color:#f59e0b;stop-opacity:1" />
      <stop offset="100%" style="stop-color:#ef4444;stop-opacity:1" />
    </linearGradient>
    <linearGradient id="nftGradient" x1="0%" y1="0%" x2="100%" y2="100%">
      <stop offset="0%" style="stop-color:#10b981;stop-opacity:1" />
      <stop offset="100%" style="stop-color:#3b82f6;stop-opacity:1" />
    </linearGradient>
  </defs>
  
  <!-- Main vault container -->
  <rect x="6" y="10" width="20" height="16" rx="3" fill="url(#vaultGradient)" opacity="0.9"/>
  
  <!-- Lock mechanism on top -->
  <rect x="13" y="6" width="6" height="8" rx="3" fill="url(#lockGradient)"/>
  <rect x="12" y="8" width="8" height="3" rx="1.5" fill="url(#lockGradient)"/>
  
  <!-- NFT frames with different styles -->
  <rect x="9" y="13" width="4" height="4" rx="1" fill="url(#nftGradient)" opacity="0.8"/>
  <rect x="14" y="13" width="4" height="4" rx="1" fill="url(#nftGradient)" opacity="0.8"/>
  <rect x="19" y="13" width="4" height="4" rx="1" fill="url(#nftGradient)" opacity="0.8"/>
  
  <!-- NFT content patterns -->
  <circle cx="11" cy="15" r="0.8" fill="white" opacity="0.9"/>
  <rect x="15.5" y="14.5" width="1" height="1" fill="white" opacity="0.9"/>
  <rect x="20.5" y="14.5" width="1" height="1" fill="white" opacity="0.9"/>
  
  <!-- Encryption symbols -->
  <path d="M10 18L12 20L14 18" stroke="white" stroke-width="1" stroke-linecap="round" stroke-linejoin="round" opacity="0.7"/>
  <path d="M15 18L17 20L19 18" stroke="white" stroke-width="1" stroke-linecap="round" stroke-linejoin="round" opacity="0.7"/>
  <path d="M20 18L22 20L24 18" stroke="white" stroke-width="1" stroke-linecap="round" stroke-linejoin="round" opacity="0.7"/>
  
  <!-- Security indicators -->
  <circle cx="8" cy="8" r="1" fill="#10b981" opacity="0.8"/>
  <circle cx="24" cy="8" r="1" fill="#10b981" opacity="0.8"/>
  <circle cx="8" cy="24" r="1" fill="#10b981" opacity="0.8"/>
  <circle cx="24" cy="24" r="1" fill="#10b981" opacity="0.8"/>
  
  <!-- Central encryption symbol -->
  <circle cx="16" cy="21" r="1.5" fill="white" opacity="0.6"/>
  <path d="M14.5 21L17.5 21" stroke="#8b5cf6" stroke-width="0.8" stroke-linecap="round"/>
</svg>
